<svg height='100px' width='100px'  fill="#ffffff" xmlns="http://www.w3.org/2000/svg" xmlns:xlink="http://www.w3.org/1999/xlink" version="1.1" x="0px" y="0px" viewBox="0 0 66 66" enable-background="new 0 0 66 66" xml:space="preserve"><g><g><g><path d="M1,2c0-0.5,0.4-1,1-1H64c0.5,0,1,0.4,1,1c0,0.5-0.4,1-1,1H2C1.4,2.9,1,2.5,1,2z"></path></g></g><g><g><path d="M65,46.9c0,0.5-0.4,1-1,1H44.8l9.5,15.6c0.4,0.6-0.1,1.5-0.8,1.5h-5.7c-0.3,0-0.7-0.2-0.8-0.5L36.8,47.9     h-7.7L19,64.5c-0.2,0.3-0.5,0.5-0.8,0.5h-5.7c-0.8,0-1.2-0.8-0.8-1.5l9.5-15.6H2c-0.5,0-1-0.4-1-1c0-0.5,0.4-1,1-1H64     C64.6,46,65,46.4,65,46.9z"></path></g></g><g><g><rect x="29.3" y="36.1" width="3.1" height="3.1"></rect></g><g><polygon points="23.8,11.1 23.8,14.2 26.9,14.2    "></polygon></g><g><rect x="39.5" y="29" width="3.1" height="10.2"></rect></g><g><path d="M28.3,16.1h-5.4c-0.5,0-1-0.4-1-1V9.7h-8.6v19.1h15V16.1z"></path></g><g><rect x="49.6" y="21.9" width="3.1" height="17.3"></rect></g><g><path d="M4.5,4.9V44h57V4.9H4.5z M11.3,8.8c0-0.5,0.4-1,1-1h10.6c0.2,0,0.5,0.1,0.7,0.3c0,0,0,0,0,0l6.4,6.4     c0.1,0.1,0.3,0.3,0.3,0.7v14.7c0,0.5-0.4,1-1,1h-17c-0.5,0-1-0.4-1-1V8.8z M22.5,41.1H12.3c-0.5,0-1-0.4-1-1c0-0.5,0.4-1,1-1     h10.3c0.5,0,1,0.4,1,1C23.5,40.7,23.1,41.1,22.5,41.1z M22.5,36.1H12.3c-0.5,0-1-0.4-1-1s0.4-1,1-1h10.3c0.5,0,1,0.4,1,1     S23.1,36.1,22.5,36.1z M34.4,40.2c0,0.5-0.4,1-1,1h-5.1c-0.5,0-1-0.4-1-1v-5.1c0-0.5,0.4-1,1-1h5.1c0.5,0,1,0.4,1,1V40.2z      M44.5,40.2c0,0.5-0.4,1-1,1h-5.1c-0.5,0-1-0.4-1-1V28c0-0.5,0.4-1,1-1h5.1c0.5,0,1,0.4,1,1V40.2z M54.7,40.2c0,0.5-0.4,1-1,1     h-5.1c-0.5,0-1-0.4-1-1V20.9c0-0.5,0.4-1,1-1h5.1c0.5,0,1,0.4,1,1V40.2z M53.7,15.7H36.6c-0.5,0-1-0.4-1-1c0-0.5,0.4-1,1-1h17.2     c0.5,0,1,0.4,1,1C54.7,15.2,54.3,15.7,53.7,15.7z M53.7,9.7H36.6c-0.5,0-1-0.4-1-1c0-0.5,0.4-1,1-1h17.2c0.5,0,1,0.4,1,1     C54.7,9.3,54.3,9.7,53.7,9.7z"></path></g></g></g></svg>