<svg height='100px' width='100px'  fill="#ffffff" xmlns="http://www.w3.org/2000/svg" xmlns:xlink="http://www.w3.org/1999/xlink" version="1.1" x="0px" y="0px" viewBox="0 0 100 100" enable-background="new 0 0 100 100" xml:space="preserve"><path fill="#ffffff" d="M79.332,77.599h-5.421C73.911,16.035,61.328,5,62.876,5C64.425,5.194,79.332,21.843,79.332,77.599z"></path><path fill="#ffffff" d="M72.363,77.599h-3.098c0-35.428-12.197-47.432-10.454-47.432C60.166,30.168,72.363,46.817,72.363,77.599z"></path><path fill="#ffffff" d="M82.623,77.599h3.098c0-35.428,10.841-47.432,9.099-47.432C93.271,30.168,82.623,46.817,82.623,77.599z"></path><g><path fill="#ffffff" d="M89.593,17.003c-0.968,0-6.582,3.678-10.261,22.651c0.581,4.259,1.162,8.906,1.549,13.939   C83.204,22.811,90.754,17.197,89.593,17.003z"></path></g><path fill="#ffffff" d="M5.184,71.985v7.163c0,0,4.259,2.71,9.68,0c0,0,4.066-2.517,9.293-0.194  c5.421,2.323,8.325,0.774,9.874,0.194c1.549-0.581,4.453-2.323,9.68,0s8.325,0.968,10.841-0.387l-5.808-5.421  c0,0-2.517,0.194-4.84-1.162c-2.13-1.162-6.389-1.742-9.68,0s-7.163,1.162-10.067-0.194c-3.291-1.549-6.582-0.968-8.325-0.194  C14.477,72.179,10.798,74.502,5.184,71.985z"></path><path fill="#ffffff" d="M82.43,86.505c-2.13-1.355-6.389-1.742-9.68,0s-7.163,1.162-10.067-0.194  c-3.291-1.549-6.582-0.968-8.325-0.194c-1.355,0.581-5.034,3.098-10.454,0.581c0,0-0.194,0-0.194-0.194  c-2.13-1.162-6.389-1.742-9.68,0s-7.163,1.162-10.067-0.194c-3.291-1.549-6.582-0.968-8.325-0.194  c-1.355,0.581-5.034,2.904-10.648,0.387v7.163c0,0,4.259,2.71,9.68,0c0,0,4.066-2.517,9.293-0.194  c5.421,2.323,8.325,0.774,9.874,0.194c1.549-0.581,4.453-2.323,9.68,0h0.194l0,0c0,0,4.646,2.71,9.68,0c0,0,4.066-2.517,9.293-0.194  c5.421,2.323,8.325,0.774,9.873,0.194s4.259-1.936,9.68,0c4.84,1.742,5.808,1.742,9.486,0.194v-7.357  C91.916,86.505,86.882,89.215,82.43,86.505z"></path></svg>