<svg height='100px' width='100px'  fill="#ffffff" xmlns="http://www.w3.org/2000/svg" xmlns:xlink="http://www.w3.org/1999/xlink" version="1.1" x="0px" y="0px" viewBox="-55 147 500 500" style="enable-background:new -55 147 500 500;" xml:space="preserve"><path d="M130.6,608.4h178.7v-31.9l-11.5-1.5h-34.1v-21.1h16.1c-4.7-8-7.7-17.6-8.7-28.8h-7.4V504h7.6c1-9.8,3.1-19.6,6.1-28.8h-13.7  V454h23c7.8-13.6,17.9-24,29.6-28.5V277.6H130.6V608.4z M263.7,304.3h34.1v21.1h-34.1V304.3z M263.7,354.2h34.1v21.1h-34.1V354.2z   M263.7,404.1h34.1v21.1h-34.1V404.1z M206.5,304.3h34.1v21.1h-34.1V304.3z M206.5,354.2h34.1v21.1h-34.1V354.2z M206.5,404.1h34.1  v21.1h-34.1V404.1z M206.5,454h34.1v21.1h-34.1V454z M206.5,503.9h34.1V525h-34.1V503.9z M206.5,553.9h34.1V575h-34.1V553.9z   M149.2,304.3h34.1v21.1h-34.1L149.2,304.3L149.2,304.3z M149.2,354.2h34.1v21.1h-34.1L149.2,354.2L149.2,354.2z M149.2,404.1h34.1  v21.1h-34.1L149.2,404.1L149.2,404.1z M149.2,454h34.1v21.1h-34.1L149.2,454L149.2,454z M149.2,503.9h34.1V525h-34.1L149.2,503.9  L149.2,503.9z M149.2,553.9h34.1V575h-34.1L149.2,553.9L149.2,553.9z"></path><path d="M110.5,256.5h123.8V147L26.9,203.1v251.1c10,17.6,16,40.3,16,61.8c0,20-5.6,36-16,46.8v45.6h83.6V256.5z M51.3,213.6H210  v21.1H51.3V213.6z M82.1,542.6H51.3v-21.1h30.8V542.6z M82.1,491.2H51.3v-21.1h30.8V491.2z M82.1,439.9H51.3v-21.1h30.8V439.9z   M82.1,388.6H51.3v-21.1h30.8V388.6z M82.1,337.3H51.3v-21.1h30.8V337.3z M82.1,286H51.3v-21.1h30.8V286z"></path><path d="M-25,557.5l1.5,0.2v50.7h12.6v-50.7l1.5-0.2c19.9-3,30-17,30-41.5c0-34.2-19.8-71.7-37.8-71.7S-55,481.9-55,516  C-55,540.5-44.9,554.5-25,557.5z"></path><path d="M290.8,515.7c0,24.5,10.1,38.5,30,41.5l1.5,0.2v50.7h12.6v-50.7l1.5-0.2c19.9-3,30-17,30-41.5c0-34.2-19.8-71.7-37.8-71.7  S290.8,481.5,290.8,515.7z"></path><path d="M380.2,548.3c4.8,4.7,11.2,7.7,19.2,8.9l1.6,0.2v51h12.6v-51l1.4-0.2c19.9-3,30-17,30-41.5c0-34.2-19.8-71.7-37.8-71.7  c-10.1,0-20.8,11.9-28.2,28.3c4.9,13.7,7.6,28.8,7.6,43.4C386.6,528.2,384.4,539.1,380.2,548.3z"></path><rect x="-55" y="618" width="500" height="29"></rect></svg>