<svg height='100px' width='100px'  fill="#ffffff" xmlns="http://www.w3.org/2000/svg" xmlns:xlink="http://www.w3.org/1999/xlink" version="1.1" x="0px" y="0px" viewBox="0 0 66 66" enable-background="new 0 0 66 66" xml:space="preserve"><g><g><path d="M14.3,11.9c0.2-0.5,0.8-0.8,1.3-0.6c0.1,0,1.6,0.7,2.7,2c1-1.3,2.5-2,2.6-2c0.5-0.2,1.1,0,1.3,0.5c0.2,0.5,0,1.1-0.5,1.3    c0,0-2.2,1-2.4,2.7c0.1,1.9-2.1,2-2,0c-0.2-1.7-2.4-2.7-2.5-2.7C14.4,13,14.1,12.4,14.3,11.9z"></path><path d="M3.1,2.6c0.2-0.5,0.8-0.8,1.3-0.5c0.2,0.1,2.9,1.2,4.4,3.5c1.5-2.3,4.1-3.5,4.3-3.5c0.5-0.2,1.1,0,1.3,0.5    c0.2,0.5,0,1.1-0.5,1.3c0,0-3.7,1.6-4.1,4.7c0.2,2.3-2.1,2.3-2,0C7.5,5.5,3.7,4,3.7,3.9C3.1,3.7,2.9,3.1,3.1,2.6z"></path><path d="M55.4,1.9c0.2-0.5,0.8-0.8,1.3-0.6c0.1,0.1,2,0.8,3.2,2.5c1.2-1.6,3-2.4,3.2-2.5c0.5-0.2,1.1,0,1.3,0.5s0,1.1-0.5,1.3    c0,0-2.7,1.2-2.9,3.3c0.1,2.1-2.1,2-2,0c-0.3-2.2-3-3.3-3-3.3C55.4,3,55.2,2.4,55.4,1.9z"></path><path d="M65.1,63.8c0,0.6-0.4,1-1,1h-62c-0.5,0-1-0.4-1-1c0-0.5,0.5-1,1-1h6.9V46.5c-4.6-0.5-8.2-4.8-8.2-9.9    c0-5.1,8-20.7,8.3-21.3c0.3-0.7,1.4-0.7,1.8,0c0.3,0.7,8.3,16.2,8.3,21.3c0,5.1-3.6,9.4-8.2,9.9v16.3h9.1v-6.2    c-0.6,0.3-1.2,0.4-1.8,0.4c-2.7,0-4.2-2-4.4-3.9c-0.2-1.6,0.5-3.6,2.4-4.4c-0.2-1.2,0-2.4,0.7-3.5c0.9-1.3,2.4-2.1,4-2.1    c1.6,0,3.1,0.8,4,2.1c0.7,1,0.9,2.3,0.7,3.5c1.9,0.9,2.6,2.8,2.4,4.4c-0.2,1.9-1.6,3.9-4.4,3.9c-0.6,0-1.2-0.1-1.8-0.4v6.2h9.7    V41.4C26,40.8,21.3,35.5,21.3,29c0-6.5,10.2-26.3,10.6-27.2c0.3-0.7,1.4-0.7,1.8,0C34.2,2.6,44.4,22.5,44.4,29    c0,6.5-4.6,11.9-10.5,12.4v21.4h8.8v-6.2c-0.5,0.3-1.1,0.4-1.8,0.4c-0.5,0-0.9-0.1-1.4-0.2c-1.9-0.6-3.1-2.2-3.1-4.2    c0-1.7,1-3.2,2.5-4c-0.1-0.3-0.1-0.6-0.1-0.9c0-3.1,2.4-4.8,4.8-4.8c2.4,0,4.8,1.6,4.8,4.8c0,0.3,0,0.6-0.1,0.8    c1.9,0.9,2.6,2.8,2.4,4.4c-0.2,1.9-1.6,3.9-4.4,3.9c-0.6,0-1.2-0.1-1.8-0.4v6.2h9.9V46.5c-4.6-0.5-8.2-4.8-8.2-9.9    c0-5.1,8-20.7,8.3-21.3c0.4-0.7,1.4-0.7,1.8,0c0.3,0.7,8.3,16.2,8.3,21.3c0,5.1-3.6,9.4-8.2,9.9v16.3h7.5    C64.7,62.8,65.1,63.2,65.1,63.8z"></path><path d="M43.1,8.1c0.2-0.5,0.8-0.8,1.3-0.5c0.1,0,2.1,0.8,3.3,2.5c1.2-1.7,3.1-2.5,3.2-2.5c0.5-0.2,1.1,0,1.3,0.5    c0.2,0.5,0,1.1-0.5,1.3c0,0-2.7,1.2-3,3.4c0.1,2.1-2.1,2.1-2,0c-0.3-2.2-3-3.3-3.1-3.4C43.2,9.2,42.9,8.6,43.1,8.1z"></path></g><g><path d="M14.6,2.7"></path></g></g></svg>