<svg fill="#FF6868" xmlns="http://www.w3.org/2000/svg" data-name="Layer 1" viewBox="0 0 512 512" x="0px" y="0px"><title>p</title><path d="M256,0h0C115.2,0,0,115.2,0,256H0C0,396.8,115.2,512,256,512h0c140.8,0,256-115.2,256-256h0C512,115.2,396.8,0,256,0ZM235.73,126.27a20.27,20.27,0,1,1,40.54,0v142a20.27,20.27,0,1,1-40.54,0v-142ZM360.1,362.88A147.22,147.22,0,1,1,159.5,147.59a20.27,20.27,0,0,1,26.58,30.61,106.68,106.68,0,1,0,139.18-.56,20.27,20.27,0,1,1,26.34-30.82A147.23,147.23,0,0,1,360.1,362.88Z"></path></svg>