<svg fill="#FFFFFF" xmlns="http://www.w3.org/2000/svg" xmlns:xlink="http://www.w3.org/1999/xlink" version="1.2" baseProfile="tiny" x="0px" y="0px" viewBox="0 0 100 100" xml:space="preserve"><path d="M50,0.8C22.8,0.8,0.8,22.8,0.8,50S22.8,99.2,50,99.2S99.2,77.2,99.2,50S77.2,0.8,50,0.8z M50,96.8  c-12.3,0-23.6-4.8-31.9-12.7c0.3-10.7,8.9-20,21.6-23.5c-5.1-3.4-8.4-9.1-8.4-15.6c0-10.3,8.4-18.8,18.8-18.8S68.8,34.7,68.8,45  c0,6.5-3.4,12.3-8.4,15.6C73,64.1,81.6,73.4,81.9,84.1C73.6,91.9,62.3,96.8,50,96.8z"></path></svg>