<svg height='100px' width='100px'  fill="#ffffff" xmlns="http://www.w3.org/2000/svg" xmlns:xlink="http://www.w3.org/1999/xlink" version="1.1" x="0px" y="0px" viewBox="0 0 100 100" enable-background="new 0 0 100 100" xml:space="preserve"><g><path d="M67.961,13.965c2.417,0,4.381,1.94,4.436,4.346c2.307-0.373,4.078-2.363,4.078-4.774c0-2.675-2.176-4.851-4.85-4.851   c-2.344,0-4.303,1.67-4.753,3.883c0.331,0.418,0.597,0.889,0.761,1.408C67.741,13.969,67.851,13.965,67.961,13.965z"></path><path d="M27.582,30.208l3.699,3.299l0.145,0.129l0.273-0.109l2.936-1.176c0.642-0.259,1.371,0.012,1.695,0.622l0.413,0.782   l2.085,3.94l3.086-3.706l1.715-2.059c0.428-0.513,1.165-0.637,1.735-0.291l3.409,2.06l2.066-0.33   c-0.273-0.461-0.547-0.921-0.827-1.38c-0.174-0.284-0.337-0.574-0.499-0.863c-0.443-0.789-0.826-1.471-1.4-1.961   c-0.482-0.412-1.049-0.487-1.99-0.487l-1.677,0.006l-2.481-0.003c-0.471,0-0.906-0.245-1.152-0.646l-5.037-8.258   c-0.037-0.062-0.069-0.126-0.097-0.192c-0.065-0.148-0.753-1.588-2.641-1.588c-1.969,0-2.636,1.573-2.642,1.589l-4.525,10.541   l0.139-0.08C26.513,29.755,27.146,29.821,27.582,30.208z"></path><path d="M75.6,32.296c0,0.936,0.736,1.698,1.678,1.737c0.041,0.001,0.082,0.005,0.123,0.011h9.03   c0.04-0.006,0.081-0.01,0.123-0.011c0.94-0.039,1.678-0.802,1.678-1.737c0-1.25-1.394-2.188-2.597-1.512   c-0.445,0.254-0.997,0.229-1.422-0.058c-0.424-0.288-0.648-0.792-0.579-1.3c0.017-0.121,0.028-0.173,0.028-0.228   c0-0.964-0.783-1.748-1.746-1.748s-1.747,0.784-1.747,1.748c0.001,0.053,0.011,0.104,0.018,0.154   c0.069,0.509-0.15,1.049-0.575,1.337c-0.425,0.287-0.971,0.346-1.418,0.094C76.998,30.104,75.6,31.046,75.6,32.296z"></path><path d="M54.018,38.574l-1.548-2.499c-0.044-0.07-0.085-0.142-0.128-0.212l-3.631,0.58c-0.314,0.052-0.639-0.013-0.911-0.178   l-2.839-1.715l-5.348,6.421c-0.258,0.31-0.639,0.485-1.037,0.485c-0.047,0-0.094-0.002-0.141-0.007   c-0.447-0.047-0.843-0.313-1.053-0.712l-2.872-5.43l-2.857,1.145c-0.474,0.192-1.017,0.098-1.4-0.245l-3.246-2.895l-0.495-0.441   l-0.674,0.389l-1.744,1.004l-9.721,22.641h29.572l10.818-17.13C54.516,39.374,54.266,38.976,54.018,38.574z"></path><rect x="44.05" y="67.307" width="2.7" height="2.701"></rect><rect x="49.941" y="67.307" width="5.392" height="2.701"></rect><rect x="47.359" y="77.847" width="2.701" height="2.701"></rect><path d="M58.753,20.148c0.042,0.001,0.083,0.005,0.123,0.011h9.03c0.027-0.004,0.057-0.006,0.084-0.008   c0.014,0,0.025-0.003,0.039-0.003c0.941-0.039,1.678-0.802,1.678-1.737c0-0.158-0.023-0.311-0.064-0.457   c-0.209-0.736-0.908-1.27-1.682-1.273c-0.28-0.001-0.57,0.062-0.85,0.219c-0.446,0.254-0.998,0.23-1.422-0.058   c-0.426-0.288-0.65-0.792-0.58-1.3c0.017-0.121,0.027-0.173,0.028-0.228c0-0.718-0.435-1.335-1.055-1.604   c-0.212-0.093-0.446-0.145-0.692-0.145c-0.963,0-1.746,0.784-1.746,1.748c0,0.053,0.011,0.104,0.018,0.154   c0.069,0.509-0.15,1.049-0.575,1.337s-0.972,0.346-1.418,0.094c-1.196-0.68-2.594,0.262-2.594,1.512   C57.075,19.347,57.813,20.109,58.753,20.148z"></path><path d="M62.403,33.927c-0.741,0-1.127,0.59-1.169,0.657l-2.465,3.903l0.474,0.488l1.084,1.12l0.832-0.846l0.825-0.839   c0.467-0.473,1.211-0.538,1.75-0.148l2.354,1.691l0.059,0.042l0.06-0.024l0.62-0.257l-3.246-5.089   C63.508,34.508,63.135,33.927,62.403,33.927z"></path><path d="M65.433,56.905h1.782c-0.088-0.316-0.151-0.645-0.151-0.989c0-0.427,0.091-0.829,0.228-1.21   c0.536-1.494,2.007-2.555,3.667-2.472c0.529-0.994,1.509-1.699,2.673-1.857l-5.329-8.351l-1.817,0.752   c-0.432,0.181-0.926,0.121-1.305-0.151l-2.082-1.497l-1.816,1.847c-0.254,0.258-0.601,0.402-0.963,0.402   c-0.043,0.002-0.09-0.007-0.135-0.011c-0.299-0.025-0.613-0.172-0.835-0.4l-2.062-2.131l-0.939,1.485l-9.209,14.583H65.433z"></path><path d="M82.686,54.171c-0.361,0.273-0.837,0.35-1.264,0.198c-0.428-0.15-0.752-0.506-0.861-0.945   c-0.238-0.948-1.085-1.61-2.061-1.61c-0.234,0-0.458,0.05-0.672,0.121c-0.436,0.146-0.811,0.43-1.076,0.823   c-0.025,0.037-0.059,0.066-0.082,0.105c-0.198,0.335-0.53,0.568-0.912,0.64c-0.042,0.008-0.084,0.006-0.126,0.01   c-0.341,0.031-0.684-0.061-0.956-0.272c-0.586-0.46-1.424-0.011-1.441,0.678c-0.012,0.473-0.271,0.904-0.682,1.139   c-0.409,0.232-0.912,0.236-1.326,0.004c-0.158-0.088-0.317-0.133-0.475-0.133c-0.545,0-0.988,0.443-0.988,0.988   s0.443,0.989,0.988,0.989h7.045h1.602H81h2.6c0.842,0,1.525-0.685,1.525-1.526c0-0.841-0.684-1.525-1.525-1.525   C83.189,53.854,82.877,54.026,82.686,54.171z"></path><path d="M88.716,63.018h-2.7c0,2.361-1.921,4.283-4.282,4.283c-2.362,0-4.283-1.922-4.283-4.283h-2.7   c0,2.361-1.922,4.283-4.283,4.283V70c2.31,0,4.361-1.127,5.633-2.86c1.272,1.733,3.324,2.86,5.634,2.86s4.36-1.127,5.632-2.86   C88.639,68.873,90.689,70,93,70v-2.699C90.638,67.301,88.716,65.379,88.716,63.018z"></path><path d="M36.518,63.018h-2.701c0,2.361-1.921,4.283-4.283,4.283c-2.361,0-4.283-1.922-4.283-4.283h-2.7   c0,2.361-1.921,4.283-4.282,4.283s-4.283-1.922-4.283-4.283h-2.7c0,2.361-1.922,4.283-4.284,4.283V70   c2.311,0,4.362-1.127,5.635-2.86c1.271,1.733,3.323,2.86,5.633,2.86s4.361-1.127,5.633-2.859C25.172,68.873,27.224,70,29.533,70   c2.311,0,4.361-1.127,5.634-2.86C36.439,68.873,38.49,70,40.8,70v-2.699C38.438,67.301,36.518,65.379,36.518,63.018z"></path><path d="M19.354,77.688c1.271,1.732,3.322,2.859,5.632,2.859s4.361-1.127,5.634-2.859c1.271,1.732,3.323,2.859,5.633,2.859v-2.699   c-2.361,0-4.283-1.921-4.283-4.282h-2.7c0,2.361-1.921,4.282-4.283,4.282c-2.361,0-4.282-1.921-4.282-4.282h-2.7   c0,2.361-1.922,4.282-4.284,4.282v2.699C16.029,80.547,18.08,79.42,19.354,77.688z"></path><path d="M62.609,84.333H59.91c0,2.361-1.922,4.282-4.283,4.282s-4.283-1.921-4.283-4.282h-2.699c0,2.361-1.922,4.282-4.285,4.282   v2.699c2.311,0,4.362-1.127,5.635-2.859c1.271,1.732,3.323,2.859,5.633,2.859s4.361-1.127,5.633-2.859   c1.271,1.732,3.324,2.859,5.633,2.859v-2.699C64.531,88.615,62.609,86.694,62.609,84.333z"></path><path d="M88.717,84.333h-2.7c0,2.361-1.921,4.282-4.282,4.282s-4.283-1.921-4.283-4.282h-2.7c0,2.361-1.922,4.282-4.284,4.282   v2.699c2.311,0,4.361-1.127,5.635-2.859c1.271,1.732,3.322,2.859,5.633,2.859c2.309,0,4.36-1.127,5.633-2.859   c1.271,1.732,3.323,2.859,5.633,2.859v-2.699C90.639,88.615,88.717,86.694,88.717,84.333z"></path><path d="M80.934,77.688c1.271,1.732,3.324,2.859,5.633,2.859v-2.699c-2.361,0-4.283-1.921-4.283-4.282h-2.699   c0,2.361-1.922,4.282-4.283,4.282c-2.362,0-4.283-1.921-4.283-4.282h-2.701c0,2.361-1.92,4.282-4.281,4.282   c-2.363,0-4.285-1.921-4.285-4.282h-2.699c0,2.361-1.922,4.282-4.283,4.282v2.699c2.309,0,4.361-1.127,5.633-2.859   c1.272,1.732,3.324,2.859,5.635,2.859c2.309,0,4.36-1.127,5.632-2.859c1.272,1.732,3.323,2.859,5.634,2.859   C77.609,80.547,79.662,79.42,80.934,77.688z"></path><path d="M36.516,84.333h-2.699c0,2.361-1.922,4.282-4.283,4.282s-4.283-1.921-4.283-4.282h-2.7c0,2.361-1.921,4.282-4.283,4.282   s-4.283-1.921-4.283-4.282h-2.7c0,2.361-1.922,4.282-4.283,4.282v2.699c2.31,0,4.361-1.127,5.633-2.859   c1.272,1.732,3.324,2.859,5.634,2.859s4.361-1.127,5.634-2.859c1.271,1.732,3.323,2.859,5.633,2.859s4.361-1.127,5.633-2.859   c1.271,1.732,3.324,2.859,5.634,2.859v-2.699C38.438,88.615,36.516,86.694,36.516,84.333z"></path></g></svg>