<svg height='100px' width='100px'  fill="#ffffff" xmlns="http://www.w3.org/2000/svg" data-name="Layer 1" viewBox="0 0 100 100" x="0px" y="0px"><title>14</title><path d="M45.658,76.60144c1.5415-4.1861,4.04474-10.98852,4.04474-10.98852l1.3222-1.32221,8.96613,8.96613L58.66888,74.579,47.68744,78.6167A1.575,1.575,0,0,1,45.658,76.60144Zm43.381-32.39264,5.17609-5.176a2.68011,2.68011,0,0,0-.00006-3.79l-5.176-5.17609a2.68016,2.68016,0,0,0-3.79,0l-5.17608,5.17609Zm-2.82843,2.82843-8.96606-8.96612L53.85339,61.46228l8.96613,8.96613ZM68.72333,95a4.617,4.617,0,0,0,4.617-4.61694V66.97839l-5.00024,5.00013V90H10.00024V20.65967h8.29712V15.65955H9.617A4.61694,4.61694,0,0,0,5,20.27661V90.38306A4.617,4.617,0,0,0,9.617,95Zm4.617-60.0957V20.27661a4.61694,4.61694,0,0,0-4.617-4.61706H60.043v5.00012h8.29712V39.90454ZM55.04254,23.78156V16.31348a3.92059,3.92059,0,0,0-3.92059-3.9206H47.34a8.21079,8.21079,0,0,0-16.33991,0H27.218a3.9206,3.9206,0,0,0-3.9206,3.9206v7.46808a3.92059,3.92059,0,0,0,3.9206,3.92059H51.122A3.92059,3.92059,0,0,0,55.04254,23.78156Z"></path></svg>