<svg height='100px' width='100px'  fill="#ffffff" xmlns="http://www.w3.org/2000/svg" xmlns:xlink="http://www.w3.org/1999/xlink" version="1.1" x="0px" y="0px" viewBox="0 0 100 100" style="enable-background:new 0 0 100 100;" xml:space="preserve"><g><path d="M86.17212,29.98149c-3.96625,0-7.19566,3.22941-7.19566,7.19559c0,3.96624,3.22941,7.19566,7.19566,7.19566   c3.96618,0,7.18555-3.22941,7.18555-7.19566C93.35767,33.21091,90.1383,29.98149,86.17212,29.98149z M86.28311,40.06347   c-1.59457,0.07065-2.94687-1.17072-3.00748-2.77532c-0.06055-1.59457,1.18082-2.93683,2.77532-2.99738   c1.60467-0.07065,2.94693,1.18076,3.00748,2.77532C89.11899,38.66066,87.87768,40.01296,86.28311,40.06347z"></path><path d="M97.8789,37.17709c0-6.45889-5.24789-11.70678-11.70678-11.70678c-6.46906,0-11.70685,5.24789-11.70685,11.70678   c0,6.44349,5.19738,11.66188,11.63114,11.70303H73.89876l1.74807,6.21047h20.20966v-6.21047H86.2477   C92.67148,48.83897,97.8789,43.62058,97.8789,37.17709z M86.17212,45.88655c-4.80384,0-8.70947-3.90563-8.70947-8.70947   c0-4.80378,3.90563-8.7094,8.70947-8.7094c4.79373,0,8.69936,3.90563,8.69936,8.7094   C94.87148,41.98093,90.96585,45.88655,86.17212,45.88655z"></path><polygon points="23.21404,57.109 3.57065,57.109 3.57065,63.30568 21.46973,63.30568  "></polygon><polygon points="3.57065,96.20447 12.20903,96.20447 13.95574,89.99941 3.57065,89.99941  "></polygon><path d="M3.57065,87.981h10.95099c0.02882-0.10223,1.86384-6.613,1.74942-6.20702H3.57065V87.981z"></path><path d="M18.58557,73.54903H3.57065v6.20653h13.26858C16.868,79.65331,18.69981,73.143,18.58557,73.54903z"></path><path d="M20.90156,65.32409H3.57065v6.20653h15.58309C19.18253,71.42838,21.0159,64.91808,20.90156,65.32409z"></path><path d="M80.27536,71.53062h15.58112v-6.20653H78.52735C78.55615,65.42634,80.3897,71.93662,80.27536,71.53062z"></path><path d="M71.8336,48.99493h-5.64778c0.02296,0.12233,8.82018,46.9736,8.84393,47.10014h10.06251   C72.3964,51.01691,71.81472,48.92779,71.8336,48.99493z"></path><polygon points="77.95924,63.30568 95.85648,63.30568 95.85648,57.109 76.215,57.109  "></polygon><path d="M84.90746,87.981h10.94902v-6.20702H83.15768C83.18649,81.87621,85.02191,88.38698,84.90746,87.981z"></path><path d="M82.5895,79.75556h13.26698v-6.20653H80.84353C80.87727,73.66899,82.70373,80.1616,82.5895,79.75556z"></path><polygon points="87.21957,96.20447 95.85648,96.20447 95.85648,89.99941 85.47298,89.99941  "></polygon><polygon points="38.58628,96.09211 48.70411,96.09211 48.70411,48.99345 43.00896,48.99345  "></polygon><polygon points="35.2978,48.99493 26.45257,96.09507 36.55647,96.09507 40.97718,48.99493  "></polygon><path d="M56.42199,48.99345h-3.50833c4.18959-0.2244,7.52366-3.68567,7.52366-7.93088c0-4.39009-3.56253-7.95256-7.95256-7.95256   c-4.39009,0-7.95256,3.56247-7.95256,7.95256c0,4.24522,3.33401,7.70648,7.52366,7.93088h-1.33333v47.09866h10.12004   C60.44859,91.8945,56.89918,54.07764,56.42199,48.99345z M49.48738,41.07268c0-1.65512,1.34226-2.99738,2.99738-2.99738   c1.65506,0,2.99732,1.34226,2.99732,2.99738c0,1.64501-1.34226,2.98721-2.99732,2.98721   C50.82964,44.05989,49.48738,42.71769,49.48738,41.07268z"></path><path d="M33.24372,48.99493h-5.64821c-1.01363,3.62997-13.22728,46.98694-13.25916,47.10014h10.06233   C27.33858,80.43997,30.31281,64.60209,33.24372,48.99493z"></path><path d="M64.13099,48.99345h-5.68166c0.63174,6.73075,3.78641,40.34134,4.42064,47.09866H72.9724   C72.87385,95.56712,64.15973,49.14651,64.13099,48.99345z"></path><path d="M8.84644,34.79254c1.83566,0.12831,3.53765-0.41449,4.8966-1.40774c0.01423-0.01041,0.03141-0.01343,0.04583-0.02335   v15.51867H3.57065v6.21047h20.2115l1.74819-6.21047h-9.72305v-15.5202c0.01626,0.01115,0.03554,0.01466,0.05156,0.02636   c1.35551,0.99344,3.05953,1.53574,4.89666,1.40583c3.55409-0.25132,6.49708-3.13671,6.81043-6.68588   c0.29203-3.30733-1.59444-6.20967-4.3795-7.43478c-0.66328-0.29179-1.05984-0.98426-1.02467-1.70803   c0.00585-0.11981,0.00881-0.24047,0.00881-0.36201c0-4.08284-3.30389-7.38679-7.37743-7.38679   c-4.07348,0-7.37743,3.30395-7.37743,7.38679c0,0.12258,0.00302,0.2443,0.00905,0.36521   c0.0361,0.72401-0.36133,1.416-1.02448,1.70877c-2.78167,1.22806-4.66426,4.13021-4.37007,7.43619   C2.34603,31.66082,5.29179,34.54406,8.84644,34.79254z M19.34284,24.38989c0.7465,0,1.34577,0.60913,1.34577,1.35563   c0,0.74662-0.59928,1.34577-1.34577,1.34577c-0.74662,0-1.35563-0.59916-1.35563-1.34577   C17.98721,24.99902,18.59622,24.38989,19.34284,24.38989z M15.64375,17.38617c0.81025,0,1.46072,0.66112,1.46072,1.47143   s-0.65047,1.46065-1.46072,1.46065c-0.81037,0-1.47137-0.65034-1.47137-1.46065S14.83338,17.38617,15.64375,17.38617z"></path><path d="M61.28502,36.40004h1.1202c0.43395,0.99911,0.71656,2.07896,0.79731,3.21938   c0.06055,0.94866-0.0202,1.90736-0.2422,2.83587c-0.10096,0.40365,0.15134,0.80735,0.56516,0.90825   c0.05045,0.0101,0.111,0.0202,0.17155,0.0202c0.3431,0,0.65595-0.2321,0.73671-0.58536   c0.2523-1.06976,0.35326-2.16976,0.2725-3.27993c-0.07065-1.0899-0.30275-2.13951-0.66611-3.11842h8.43702   c0.39355-7.20576,6.38824-12.94815,13.69496-12.94815c5.03593,0,9.44617,2.72487,11.82788,6.77181l-3.25972-10.41503   c-0.16151-0.35326-0.51471-0.58536-0.91841-0.58536h-1.52392L89.83548,6.37611c-0.2422-1.26151-1.3523-2.17992-2.64412-2.17992   H72.06335c-1.29175,0-2.41202,0.91841-2.65422,2.17992L66.95676,19.2233h-3.84508v-7.2259   c0-0.55511-0.45415-1.00921-1.00921-1.00921h-1.29175V5.8513c-0.03031-0.18165-0.17161-1.12021-0.96886-1.68536   c-0.34316-0.2422-0.92846-0.4945-1.78632-0.30275c-0.54495,0.1211-0.88811,0.65595-0.76701,1.20096   c0.12116,0.54495,0.65601,0.88805,1.20096,0.76695c0.11106-0.03024,0.18171-0.02014,0.19175-0.01004   c0.0303,0.02014,0.09085,0.14124,0.11106,0.2321v4.93504h-1.28171c-0.56516,0-1.00921,0.45409-1.00921,1.00921v7.2259h-5.80294   c-1.48357,0.0101-2.68446,1.21106-2.68446,2.69457v10.24348c1.3422-0.68625,2.85601-1.06976,4.47078-1.06976   C56.29953,31.0916,59.61987,33.24121,61.28502,36.40004z M86.1216,9.74683l1.59457,9.72878h-7.53875l-0.1413-9.72878H86.1216z    M71.98266,16.73059l1.15045-6.98376h5.37909v10.15263l-5.79284,5.33875c-0.72666,0-1.32206-0.59546-1.32206-1.32206   C71.3973,21.51423,71.59915,19.0921,71.98266,16.73059z M59.56936,23.41154c0-0.41381,0.34316-0.7569,0.7569-0.7569   c0.42391,0,0.7569,0.3431,0.7569,0.7569v3.17897c0,0.41381-0.33299,0.7569-0.7569,0.7569c-0.41375,0-0.7569-0.3431-0.7569-0.7569   V23.41154z M56.61238,23.41154c0-0.41381,0.33305-0.7569,0.7569-0.7569c0.41381,0,0.7569,0.3431,0.7569,0.7569v3.17897   c0,0.41381-0.34309,0.7569-0.7569,0.7569c-0.42385,0-0.7569-0.3431-0.7569-0.7569V23.41154z M53.64531,23.41154   c0-0.41381,0.34316-0.7569,0.7569-0.7569c0.41381,0,0.75691,0.3431,0.75691,0.7569v3.17897c0,0.41381-0.3431,0.7569-0.75691,0.7569   c-0.41375,0-0.7569-0.3431-0.7569-0.7569V23.41154z"></path></g></svg>