<svg height='100px' width='100px'  fill="#ffffff" xmlns:x="http://ns.adobe.com/Extensibility/1.0/" xmlns:i="http://ns.adobe.com/AdobeIllustrator/10.0/" xmlns:graph="http://ns.adobe.com/Graphs/1.0/" xmlns="http://www.w3.org/2000/svg" xmlns:xlink="http://www.w3.org/1999/xlink" version="1.1" x="0px" y="0px" viewBox="0 0 100 100" style="enable-background:new 0 0 100 100;" xml:space="preserve"><g><g i:extraneous="self"><g><path d="M5273.1,2400.1v-2c0-2.8-5-4-9.7-4s-9.7,1.3-9.7,4v2c0,1.8,0.7,3.6,2,4.9l5,4.9c0.3,0.3,0.4,0.6,0.4,1v6.4     c0,0.4,0.2,0.7,0.6,0.8l2.9,0.9c0.5,0.1,1-0.2,1-0.8v-7.2c0-0.4,0.2-0.7,0.4-1l5.1-5C5272.4,2403.7,5273.1,2401.9,5273.1,2400.1z      M5263.4,2400c-4.8,0-7.4-1.3-7.5-1.8v0c0.1-0.5,2.7-1.8,7.5-1.8c4.8,0,7.3,1.3,7.5,1.8C5270.7,2398.7,5268.2,2400,5263.4,2400z"></path><path d="M5268.4,2410.3c-0.6,0-1,0.4-1,1c0,0.6,0.4,1,1,1h4.3c0.6,0,1-0.4,1-1c0-0.6-0.4-1-1-1H5268.4z"></path><path d="M5272.7,2413.7h-4.3c-0.6,0-1,0.4-1,1c0,0.6,0.4,1,1,1h4.3c0.6,0,1-0.4,1-1C5273.7,2414.1,5273.3,2413.7,5272.7,2413.7z"></path><path d="M5272.7,2417h-4.3c-0.6,0-1,0.4-1,1c0,0.6,0.4,1,1,1h4.3c0.6,0,1-0.4,1-1C5273.7,2417.5,5273.3,2417,5272.7,2417z"></path></g><g><path d="M88.6,73.9h-4.5v-5c0-5.9-4.8-10.7-10.7-10.7H52.9V48h-5.3c-0.2,0-0.3,0-0.5-0.1v10.2H26.5c-5.9,0-10.7,4.8-10.7,10.7v5     h-4.5c-2.5,0-4.6,2-4.6,4.5v14.5c0,2.5,2.1,4.6,4.6,4.6h14.5c2.5,0,4.6-2.1,4.6-4.6V78.4c0-2.5-2.1-4.5-4.6-4.5h-4.3v-5     c0-2.6,2.1-4.8,4.8-4.8h20.6v9.9h-4.3c-2.5,0-4.6,2-4.6,4.5v14.5c0,2.5,2.1,4.6,4.6,4.6h14.5c2.5,0,4.6-2.1,4.6-4.6V78.4     c0-2.5-2.1-4.5-4.6-4.5h-4.3V64h20.6c2.7,0,4.8,2.2,4.8,4.8v5h-4.3c-2.5,0-4.5,2-4.5,4.5v14.5c0,2.5,2,4.6,4.5,4.6h14.5     c2.5,0,4.6-2.1,4.6-4.6V78.4C93.2,75.9,91.1,73.9,88.6,73.9z M21.8,80.4c0.6-0.6,1.6-0.6,2.3,0c0.6,0.6,0.6,1.7,0,2.3l-3,3l3,3     c0.6,0.6,0.6,1.7,0,2.3c-0.3,0.3-0.7,0.5-1.1,0.5c-0.5,0-0.8-0.2-1.2-0.5l-3-3l-3,3c-0.3,0.3-0.8,0.5-1.2,0.5s-0.8-0.2-1.2-0.5     c-0.6-0.6-0.6-1.6,0-2.3l3-3l-3-3c-0.6-0.6-0.6-1.7,0-2.3c0.6-0.6,1.7-0.6,2.3,0l3,3.1L21.8,80.4z M53.9,81.3     c0.6-0.7,1.6-0.8,2.3-0.3c0.6,0.6,0.8,1.6,0.2,2.3l-6.7,8.1c-0.3,0.4-0.8,0.6-1.3,0.6c-0.5,0-0.9-0.2-1.2-0.6l-3.6-4.3     c-0.6-0.6-0.5-1.7,0.2-2.3c0.7-0.6,1.7-0.5,2.3,0.3l2.3,2.8L53.9,81.3z M86.7,88.8c0.6,0.6,0.6,1.7,0,2.3     c-0.3,0.3-0.7,0.5-1.1,0.5c-0.5,0-0.8-0.2-1.2-0.5l-3-3l-3,3c-0.3,0.3-0.8,0.5-1.2,0.5c-0.4,0-0.8-0.2-1.2-0.5     c-0.6-0.6-0.6-1.6,0-2.3l3-3l-3-3c-0.6-0.6-0.6-1.7,0-2.3c0.6-0.6,1.7-0.6,2.3,0l3,3.1l3-3.1c0.6-0.6,1.7-0.6,2.3,0     c0.6,0.6,0.6,1.7,0,2.3l-3,3L86.7,88.8z"></path><path d="M30.6,26.2l4.5,1.6c0.3,0.1,0.5,0.3,0.6,0.6c0.1,0.1,0.1,0.3,0.2,0.4c0.1,0.3,0.1,0.6,0,0.9l-2,4.3     c-0.2,0.4-0.1,0.9,0.2,1.2l3.5,3.5c0.3,0.3,0.8,0.4,1.2,0.2l4.3-2c0.3-0.1,0.6-0.1,0.9,0c0.1,0.1,0.3,0.1,0.4,0.2     c0.3,0.1,0.5,0.3,0.6,0.6l1.6,4.5c0.2,0.4,0.6,0.7,1,0.7h4.9c0.5,0,0.9-0.3,1-0.7l1.6-4.5c0.1-0.3,0.3-0.5,0.6-0.6     c0.1,0,0.2-0.1,0.4-0.2c0.3-0.1,0.6-0.1,0.9,0l4.3,2c0.4,0.2,0.9,0.1,1.2-0.2l3.5-3.5c0.3-0.3,0.4-0.8,0.2-1.2l-2-4.3     c-0.1-0.3-0.1-0.6,0-0.9c0.1-0.1,0.1-0.2,0.1-0.4c0.1-0.3,0.3-0.5,0.6-0.6l4.5-1.6c0.4-0.2,0.7-0.6,0.7-1v-4.9     c0-0.5-0.3-0.9-0.7-1l-4.5-1.6c-0.3-0.1-0.5-0.3-0.6-0.6c0-0.1-0.1-0.2-0.1-0.4c-0.1-0.3-0.1-0.6,0-0.9l2-4.3     c0.2-0.4,0.1-0.9-0.2-1.2l-3.5-3.5c-0.3-0.3-0.8-0.4-1.2-0.2l-4.3,2c-0.3,0.1-0.6,0.1-0.9,0c-0.1-0.1-0.2-0.1-0.4-0.2     C55.4,8.2,55.2,8,55,7.7l-1.6-4.5c-0.2-0.4-0.6-0.7-1-0.7h-4.9c-0.5,0-0.9,0.3-1,0.7l-1.6,4.5c-0.1,0.3-0.3,0.5-0.6,0.6     c-0.1,0.1-0.3,0.1-0.4,0.2c-0.3,0.1-0.6,0.1-0.9,0l-4.3-2c-0.4-0.2-0.9-0.1-1.2,0.2L34,10.2c-0.3,0.3-0.4,0.8-0.2,1.2l2,4.3     c0.1,0.3,0.1,0.6,0,0.9c-0.1,0.1-0.1,0.3-0.2,0.4c-0.1,0.3-0.3,0.5-0.6,0.6l-4.4,1.6c-0.4,0.2-0.7,0.6-0.7,1v4.9     C29.8,25.6,30.1,26,30.6,26.2z M50,15.3c4.1,0,7.4,3.3,7.4,7.4c0,4.1-3.3,7.4-7.4,7.4c-4.1,0-7.4-3.3-7.4-7.4     C42.6,18.6,45.9,15.3,50,15.3z"></path></g></g></g></svg>