<svg fill="#FFFFFF" xmlns="http://www.w3.org/2000/svg" xmlns:xlink="http://www.w3.org/1999/xlink" version="1.1" x="0px" y="0px" viewBox="0 0 100 100" enable-background="new 0 0 100 100" xml:space="preserve"><polygon points="74.492,42.083 74.492,47.742 74.492,63.018 74.492,72.48 74.683,72.592 74.683,41.973 "></polygon><polygon points="82.838,75.152 50.974,93.55 50.974,96.242 82.838,77.85 "></polygon><polygon points="52.561,73.887 57.329,71.133 57.329,58.896 52.561,61.65 "></polygon><polygon points="65.742,64.938 65.742,55.375 61.12,58.047 61.12,67.607 "></polygon><polygon points="72.697,62.258 72.697,50.021 69.534,51.85 69.534,64.085 "></polygon><path d="M67.312,58.181l0.07-0.05c0.016-0.012,0.035-0.014,0.052-0.023c0.014-0.008,0.024-0.021,0.04-0.027l0.068-0.029  c0.024-0.01,0.049-0.008,0.073-0.015c0.023-0.005,0.042-0.019,0.067-0.021l0.07-0.006c0.061-0.007,0.121,0.001,0.178,0.018v-6.004  l-8.619,4.979V71.18l8.619-4.979v-6.549l-0.063,0.025c-0.023,0.01-0.048,0.008-0.072,0.014c-0.02,0.006-0.036,0.017-0.058,0.02  l-0.064,0.006c-0.017,0.002-0.032,0.002-0.049,0.002c-0.002,0-0.003,0-0.005,0h-0.001c-0.042,0-0.084-0.006-0.128-0.02l-0.057-0.016  c-0.01-0.004-0.017-0.011-0.026-0.015c-0.019-0.006-0.036-0.016-0.054-0.024c-0.008-0.004-0.017-0.002-0.023-0.006l-0.036-0.021  v5.941c0,0.009-0.004,0.017-0.005,0.025c-0.001,0.021-0.004,0.041-0.009,0.062c-0.004,0.022-0.009,0.043-0.017,0.064  c-0.007,0.02-0.013,0.037-0.022,0.055c-0.003,0.009-0.003,0.018-0.008,0.026c-0.005,0.007-0.014,0.011-0.018,0.018  c-0.014,0.02-0.025,0.038-0.041,0.056c-0.022,0.026-0.048,0.047-0.076,0.066c-0.015,0.012-0.025,0.027-0.042,0.037h-0.001  c-0.001,0.002-0.002,0.002-0.003,0.002l-6.393,3.691c-0.007,0.004-0.015,0.002-0.021,0.006c-0.065,0.035-0.137,0.059-0.216,0.059  c-0.078,0-0.148-0.023-0.213-0.057c-0.019-0.008-0.032-0.021-0.048-0.031c-0.05-0.033-0.09-0.074-0.124-0.123  c-0.008-0.011-0.02-0.016-0.026-0.026c-0.005-0.009-0.005-0.018-0.009-0.026c-0.015-0.028-0.022-0.061-0.031-0.092  c-0.008-0.031-0.017-0.061-0.019-0.092c-0.001-0.01-0.006-0.018-0.006-0.027v-0.221V57.645c0-0.02,0.01-0.037,0.013-0.057  c0.004-0.033,0.008-0.064,0.019-0.096c0.01-0.029,0.023-0.055,0.04-0.081c0.015-0.026,0.029-0.052,0.05-0.074  c0.021-0.025,0.046-0.045,0.073-0.065c0.016-0.012,0.026-0.027,0.044-0.038l6.202-3.58c0.001,0,0.001-0.001,0.001-0.001l0.19-0.111  c0.01-0.005,0.02-0.005,0.028-0.01c0.029-0.014,0.06-0.021,0.092-0.031c0.03-0.008,0.059-0.016,0.09-0.018  c0.01,0,0.02-0.006,0.03-0.006c0.021,0,0.039,0.01,0.059,0.012c0.032,0.004,0.062,0.009,0.093,0.019  c0.029,0.01,0.056,0.024,0.082,0.04c0.026,0.015,0.051,0.029,0.074,0.049c0.024,0.021,0.044,0.047,0.064,0.073  c0.012,0.015,0.028,0.025,0.038,0.042c0.006,0.01,0.006,0.02,0.009,0.029c0.016,0.027,0.022,0.057,0.031,0.088  s0.018,0.062,0.02,0.095c0,0.011,0.005,0.019,0.005,0.028v4.248C67.302,58.193,67.305,58.186,67.312,58.181z"></path><polygon points="52.561,84.119 73.128,72.242 73.128,64.553 52.561,76.427 "></polygon><polygon points="81.053,34.592 81.251,34.706 81.251,34.605 81.053,34.491 "></polygon><polygon points="52.561,85.918 74.211,73.416 74.016,73.303 52.561,85.691 "></polygon><polygon points="66.783,26.927 53.902,49.243 79.67,34.366 "></polygon><polygon points="52.561,51.591 52.561,51.816 80.774,35.528 80.579,35.416 "></polygon><path d="M82.838,32.93l-15.763-9.099L50.974,51.725v2.841l0.874-0.505l21.518-12.425c0,0,0,0,0.001,0c0,0,0,0,0,0l0.414-0.238  c0.001,0,0.001,0,0.002,0l1.137-0.658c0.001,0,0.001-0.001,0.002-0.001l1.586-0.917l6.331-3.651V32.93z M82.201,35.527  c0,0.01-0.005,0.018-0.006,0.028c-0.001,0.021-0.004,0.041-0.008,0.062c-0.004,0.022-0.01,0.042-0.017,0.064  c-0.008,0.02-0.014,0.039-0.024,0.057c-0.004,0.008-0.004,0.018-0.008,0.026c-0.004,0.007-0.013,0.01-0.018,0.016  c-0.012,0.02-0.024,0.038-0.04,0.055c-0.021,0.025-0.047,0.044-0.073,0.064c-0.017,0.012-0.026,0.029-0.044,0.039L52.322,53.051  c-0.007,0.004-0.015,0.002-0.021,0.006c-0.066,0.033-0.137,0.057-0.216,0.057c-0.078,0-0.148-0.023-0.212-0.056  c-0.019-0.009-0.033-0.021-0.049-0.032c-0.05-0.033-0.09-0.074-0.124-0.123c-0.008-0.01-0.02-0.016-0.026-0.026  c-0.004-0.009-0.004-0.018-0.008-0.026c-0.015-0.028-0.023-0.06-0.031-0.092c-0.009-0.031-0.018-0.06-0.019-0.091  c-0.001-0.01-0.006-0.019-0.006-0.028v-1.197c0-0.01,0.005-0.018,0.006-0.027c0.001-0.031,0.01-0.061,0.019-0.092  c0.008-0.032,0.016-0.062,0.03-0.09c0.004-0.01,0.004-0.019,0.008-0.027l0.108-0.188c0,0,0.001,0,0.001-0.001l0.412-0.714  l14.005-24.262c0,0,0,0,0-0.001l0.292-0.504c0.128-0.222,0.407-0.296,0.63-0.18c0.006,0.003,0.013,0.003,0.019,0.006l0.001,0  c0,0,0,0,0,0l13.675,7.894l1.148,0.663c0.018,0.01,0.027,0.027,0.044,0.039c0.026,0.02,0.052,0.04,0.073,0.065  c0.021,0.023,0.035,0.048,0.051,0.074c0.015,0.026,0.028,0.051,0.039,0.08c0.011,0.032,0.015,0.064,0.02,0.097  c0.002,0.02,0.011,0.037,0.011,0.056V35.527z"></path><path d="M51.61,84.941v-8.789V75.68v-0.499v-0.472V61.376V60.9v-0.494V59.93v-4.635l-0.637,0.367v33.002L76.27,74.057v-3.514V41.056  l-0.637,0.367v31.994c0,0.011-0.005,0.018-0.006,0.028c-0.001,0.021-0.004,0.041-0.008,0.062c-0.005,0.021-0.011,0.042-0.017,0.062  c-0.008,0.021-0.015,0.039-0.024,0.058c-0.005,0.009-0.004,0.019-0.009,0.028c-0.004,0.007-0.013,0.009-0.018,0.016  c-0.012,0.02-0.023,0.035-0.038,0.053c-0.022,0.025-0.049,0.046-0.076,0.066c-0.016,0.012-0.025,0.027-0.042,0.037l-0.003,0.002  c-0.001,0-0.002,0.001-0.003,0.002L52.322,87.151c-0.006,0.004-0.015,0.002-0.021,0.005c-0.066,0.035-0.138,0.059-0.217,0.059  c-0.078,0-0.148-0.022-0.212-0.055c-0.019-0.01-0.033-0.021-0.049-0.033c-0.05-0.034-0.09-0.074-0.124-0.123  c-0.008-0.01-0.02-0.016-0.026-0.025c-0.004-0.009-0.004-0.018-0.008-0.027c-0.015-0.027-0.023-0.06-0.031-0.092  c-0.009-0.031-0.018-0.06-0.019-0.092c-0.001-0.009-0.006-0.018-0.006-0.027v-1.322V84.941z"></path><polygon points="73.128,42.87 52.561,54.746 52.561,59.107 73.128,47.23 "></polygon><rect x="26.362" y="9.447" transform="matrix(0.4999 -0.8661 0.8661 0.4999 -3.0281 50.5903)" width="31.864" height="36.94"></rect><polygon points="18.16,77.85 50.023,96.242 50.023,93.55 18.16,75.152 "></polygon><path d="M82.361,74.332l-5.142-2.967v2.966c0,0.021-0.01,0.038-0.013,0.058c-0.004,0.033-0.008,0.064-0.019,0.096  c-0.01,0.029-0.023,0.055-0.04,0.08c-0.015,0.026-0.029,0.051-0.049,0.074c-0.022,0.025-0.048,0.046-0.076,0.066  c-0.015,0.011-0.024,0.027-0.042,0.037L50.736,89.898c-0.001,0-0.001,0-0.002,0c-0.007,0.004-0.016,0.004-0.023,0.008  c-0.063,0.033-0.134,0.057-0.212,0.057s-0.148-0.023-0.213-0.057c-0.007-0.004-0.017-0.004-0.023-0.008c-0.001,0-0.001,0-0.001,0  L24.009,74.742c-0.017-0.01-0.026-0.026-0.041-0.037c-0.028-0.021-0.054-0.041-0.076-0.066c-0.02-0.023-0.034-0.048-0.05-0.074  c-0.016-0.025-0.029-0.051-0.039-0.08c-0.011-0.031-0.016-0.062-0.02-0.096c-0.002-0.02-0.012-0.037-0.012-0.058v-2.966  l-5.138,2.966l31.865,18.397L82.361,74.332z"></path><path d="M24.722,41.056v29.487v3.514l25.302,14.609V55.662l-0.636-0.367v29.43v0.693v1.322c0,0.01-0.005,0.019-0.006,0.027  c-0.002,0.032-0.011,0.061-0.019,0.092c-0.009,0.032-0.017,0.064-0.031,0.092c-0.004,0.01-0.004,0.019-0.009,0.027  c-0.007,0.01-0.019,0.016-0.026,0.025c-0.034,0.049-0.074,0.089-0.124,0.123c-0.016,0.012-0.029,0.023-0.048,0.033  c-0.064,0.032-0.135,0.055-0.213,0.055c-0.079,0-0.15-0.023-0.216-0.059c-0.007-0.003-0.015-0.001-0.021-0.005l-23.074-13.32  C25.6,73.83,25.6,73.83,25.599,73.83l-0.003-0.002c-0.017-0.01-0.027-0.025-0.042-0.037c-0.027-0.021-0.054-0.041-0.076-0.066  c-0.015-0.018-0.027-0.035-0.04-0.055c-0.004-0.006-0.012-0.009-0.016-0.016c-0.005-0.008-0.005-0.018-0.008-0.025  c-0.011-0.019-0.018-0.038-0.025-0.059c-0.008-0.021-0.013-0.042-0.017-0.064c-0.005-0.02-0.008-0.039-0.009-0.061  c-0.001-0.01-0.005-0.018-0.005-0.028V41.423L24.722,41.056z"></path><polygon points="48.438,54.746 28.053,42.979 28.053,72.135 48.438,83.903 "></polygon><polygon points="18.16,36.17 24.484,39.821 26.07,40.738 27.218,41.397 27.219,41.399 27.22,41.399 27.813,41.744 27.815,41.744   49.149,54.061 50.023,54.565 50.023,51.873 18.16,33.479 "></polygon><polygon points="26.782,73.417 48.438,85.918 48.438,85.691 26.981,73.303 "></polygon><polygon points="26.308,41.97 26.308,72.594 26.507,72.48 26.507,42.084 "></polygon></svg>