<svg height='100px' width='100px'  fill="#ffffff" xmlns="http://www.w3.org/2000/svg" xmlns:xlink="http://www.w3.org/1999/xlink" version="1.1" x="0px" y="0px" viewBox="0 0 100 100" style="enable-background:new 0 0 100 100;" xml:space="preserve"><path d="M50.074707,30.2602539c-14.5488281,0-26.3852539,11.8364258-26.3852539,26.3852539  c0,14.5493164,11.8364258,26.3857422,26.3852539,26.3857422c14.5493164,0,26.3857422-11.8364258,26.3857422-26.3857422  C76.4604492,42.0966797,64.6240234,30.2602539,50.074707,30.2602539z M50.074707,81.03125  c-13.4462891,0-24.3852539-10.9394531-24.3852539-24.3857422S36.628418,32.2602539,50.074707,32.2602539  s24.3857422,10.9389648,24.3857422,24.3852539S63.5209961,81.03125,50.074707,81.03125z"></path><path d="M27.1943359,21.0405273l-0.987793-0.987793c-1.3901367-1.3911133-3.8164062-1.3920898-5.2075195,0l-4.796875,4.7963867  c-1.4360352,1.4355469-1.4360352,3.7719727,0,5.2075195l0.987793,0.987793  c0.7182617,0.7177734,1.6611328,1.0766602,2.6040039,1.0766602s1.8857422-0.3588867,2.6035156-1.0766602l1.6914673-1.6913452  l3.0615845,3.0615845c-6.432251,6.088562-10.4571533,14.6958618-10.4571533,24.230835  c0,18.4067383,14.9750977,33.3818359,33.3818359,33.3818359S83.456543,75.0522461,83.456543,56.6455078  c0-9.5350342-4.0248413-18.142395-10.4570312-24.230957l3.0614624-3.0614624l1.6914673,1.6913452  c0.7177734,0.7177734,1.6606445,1.0766602,2.6040039,1.0766602c0.9428711,0,1.8857422-0.3588867,2.6035156-1.0766602  l0.987793-0.987793c1.4360352-1.4355469,1.4360352-3.7719727,0-5.2075195l-4.796875-4.7963867  c-1.390625-1.3916016-3.815918-1.3916016-5.2075195,0l-0.987793,0.987793c-1.4355469,1.4355469-1.4355469,3.7714844,0,5.2075195  l1.6912231,1.6911011l-3.1395874,3.1395874c-5.5646362-4.6723022-12.6694946-7.5592651-20.4324951-7.7892456V21.5h4.5444336  c2.0302734,0,3.6821289-1.6518555,3.6821289-3.6826172v-4.1074219c0-2.0307617-1.6518555-3.6826172-3.6821289-3.6826172H44.5307617  c-2.0302734,0-3.6821289,1.6518555-3.6821289,3.6826172v4.1079102c0,2.0302734,1.6518555,3.6821289,3.6821289,3.6821289h4.5439453  v1.7895508c-7.7626343,0.2302246-14.8673706,3.1171265-20.4318848,7.7893066l-3.1397095-3.1397095l1.6912231-1.6911011  C28.6298828,24.8120117,28.6298828,22.4760742,27.1943359,21.0405273z M74.3696289,22.4545898l0.987793-0.987793  c0.6357422-0.6357422,1.7436523-0.6357422,2.3793945,0l4.796875,4.7963867c0.6557617,0.65625,0.6557617,1.7231445,0,2.3793945  l-0.987793,0.987793c-0.6572266,0.65625-1.7241211,0.6552734-2.3793945,0l-2.3979492-2.3977051  c-0.0002441-0.0002441-0.0002441-0.0004883-0.0004883-0.0007324s-0.0004883-0.0002441-0.0007324-0.0004883l-2.3977051-2.3974609  C73.7138672,24.1777344,73.7138672,23.1103516,74.3696289,22.4545898z M42.8486328,17.8178711v-4.1079102  c0-0.9277344,0.7543945-1.6826172,1.6821289-1.6826172h11.0883789c0.9277344,0,1.6821289,0.7548828,1.6821289,1.6826172v4.1074219  c0,0.9277344-0.7543945,1.6826172-1.6821289,1.6826172H44.5307617C43.6030273,19.5,42.8486328,18.7456055,42.8486328,17.8178711z   M81.456543,56.6455078c0,17.3041992-14.0776367,31.3818359-31.3813477,31.3818359  c-17.3041992,0-31.3818359-14.0776367-31.3818359-31.3818359c0-17.3037109,14.0776367-31.3813477,31.3818359-31.3813477  C67.3789062,25.2641602,81.456543,39.3417969,81.456543,56.6455078z M25.7802734,24.8339844l-2.3977051,2.3974609  c-0.0002441,0.0002441-0.0004883,0.0002441-0.0007324,0.0004883s-0.0002441,0.0004883-0.0004883,0.0007324l-2.3979492,2.3977051  c-0.6572266,0.6552734-1.7241211,0.6542969-2.3793945,0l-0.987793-0.987793c-0.6557617-0.65625-0.6557617-1.7231445,0-2.3793945  l4.796875-4.7963867c0.3178711-0.3178711,0.7402344-0.4926758,1.1894531-0.4926758  c0.449707,0,0.8720703,0.1748047,1.1899414,0.4926758l0.987793,0.987793  C26.4360352,23.1103516,26.4360352,24.1777344,25.7802734,24.8339844z"></path><path d="M51.074707,51.4560547v-5.2994995l1.6274414,1.6271362c0.1953125,0.1953125,0.4511719,0.2929688,0.7070312,0.2929688  s0.5117188-0.0976562,0.7070312-0.2929688c0.390625-0.390625,0.390625-1.0239258,0-1.4140625l-3.3344727-3.3339844  c-0.390625-0.390625-1.0234375-0.390625-1.4140625,0l-3.3339844,3.3339844c-0.390625,0.390625-0.390625,1.0234375,0,1.4140625  s1.0234375,0.390625,1.4140625,0l1.6269531-1.6269531v5.2993774c-2.4398804,0.4697266-4.2905273,2.6149292-4.2905273,5.1893921  c0,2.9174805,2.3735352,5.2910156,5.2910156,5.2910156c2.9169922,0,5.2905273-2.3735352,5.2905273-5.2910156  C55.3657227,54.0708008,53.5145874,51.9254761,51.074707,51.4560547z M50.0751953,59.9365234  c-1.8144531,0-3.2910156-1.4765625-3.2910156-3.2910156c0-1.7745972,1.4151611-3.2158813,3.1746826-3.2787476  c0.0397949,0.0048218,0.0747681,0.0233765,0.1158447,0.0233765c0.0411987,0,0.0762329-0.0186157,0.1161499-0.0234375  c1.7598267,0.0625,3.1748657,1.5039673,3.1748657,3.2788086C53.3657227,58.4599609,51.8896484,59.9365234,50.0751953,59.9365234z"></path><path d="M50.074707,39.3935547c0.5522461,0,1-0.4477539,1-1v-2.5825195c0-0.5522461-0.4477539-1-1-1s-1,0.4477539-1,1v2.5825195  C49.074707,38.9458008,49.5224609,39.3935547,50.074707,39.3935547z"></path><path d="M40.5239258,38.1020508c-0.2768555-0.4780273-0.887207-0.6430664-1.3662109-0.3662109  c-0.4780273,0.2763672-0.6420898,0.8876953-0.3662109,1.3662109l1.2910156,2.2368164  c0.1855469,0.3208008,0.5214844,0.5,0.8671875,0.5c0.1694336,0,0.3413086-0.0429688,0.4990234-0.1337891  c0.4780273-0.2763672,0.6420898-0.8876953,0.3662109-1.3662109L40.5239258,38.1020508z"></path><path d="M31.53125,47.0947266l2.2368164,1.2910156c0.1577148,0.0908203,0.3295898,0.1337891,0.4990234,0.1337891  c0.3457031,0,0.6821289-0.1791992,0.8671875-0.5c0.2758789-0.4785156,0.1118164-1.0898438-0.3662109-1.3662109L32.53125,45.3623047  c-0.4804688-0.2773438-1.0898438-0.1118164-1.3662109,0.3662109C30.8891602,46.2070312,31.0532227,46.8183594,31.53125,47.0947266z"></path><path d="M32.8227539,56.6455078c0-0.5522461-0.4477539-1-1-1h-2.5825195c-0.5522461,0-1,0.4477539-1,1s0.4477539,1,1,1h2.5825195  C32.375,57.6455078,32.8227539,57.1977539,32.8227539,56.6455078z"></path><path d="M33.7680664,64.9052734L31.53125,66.1967773c-0.4785156,0.2763672-0.6420898,0.8881836-0.3662109,1.3662109  c0.1855469,0.3208008,0.5214844,0.5,0.8671875,0.5c0.1694336,0,0.3417969-0.0429688,0.4990234-0.1337891l2.2368164-1.2915039  c0.4785156-0.2763672,0.6420898-0.8881836,0.3662109-1.3662109C34.8574219,64.793457,34.2446289,64.6289062,33.7680664,64.9052734z"></path><path d="M41.4487305,71.5864258c-0.4804688-0.2768555-1.0898438-0.1118164-1.3662109,0.3662109l-1.2910156,2.2363281  c-0.2758789,0.4785156-0.1118164,1.0898438,0.3662109,1.3662109c0.1577148,0.0908203,0.3295898,0.1337891,0.4990234,0.1337891  c0.3457031,0,0.6816406-0.1791992,0.8671875-0.5l1.2910156-2.2363281  C42.0908203,72.4741211,41.9267578,71.862793,41.4487305,71.5864258z"></path><path d="M50.0751953,73.8979492c-0.5522461,0-1,0.4477539-1,1v2.5825195c0,0.5522461,0.4477539,1,1,1s1-0.4477539,1-1v-2.5825195  C51.0751953,74.3457031,50.6274414,73.8979492,50.0751953,73.8979492z"></path><path d="M60.0673828,71.9526367c-0.2773438-0.4780273-0.8881836-0.6430664-1.3662109-0.3662109  c-0.4780273,0.2763672-0.6420898,0.8876953-0.3662109,1.3662109l1.2910156,2.2363281  c0.1855469,0.3208008,0.5214844,0.5,0.8671875,0.5c0.1694336,0,0.3413086-0.0429688,0.4990234-0.1337891  c0.4780273-0.2763672,0.6420898-0.8876953,0.3662109-1.3662109L60.0673828,71.9526367z"></path><path d="M68.6186523,66.1967773l-2.2368164-1.2915039c-0.4790039-0.2763672-1.0898438-0.1118164-1.3662109,0.3662109  c-0.2758789,0.4780273-0.1123047,1.0898438,0.3662109,1.3662109l2.2368164,1.2915039  c0.1577148,0.0908203,0.3295898,0.1337891,0.4990234,0.1337891c0.3457031,0,0.6816406-0.1791992,0.8671875-0.5  C69.2607422,67.0849609,69.097168,66.4731445,68.6186523,66.1967773z"></path><path d="M67.3271484,56.6455078c0,0.5522461,0.4477539,1,1,1h2.5825195c0.5522461,0,1-0.4477539,1-1s-0.4477539-1-1-1h-2.5825195  C67.7749023,55.6455078,67.3271484,56.0932617,67.3271484,56.6455078z"></path><path d="M65.015625,48.0195312c0.1855469,0.3208008,0.5214844,0.5,0.8671875,0.5  c0.1694336,0,0.3417969-0.0429688,0.4990234-0.1337891l2.2368164-1.2915039  c0.4785156-0.2763672,0.6420898-0.8881836,0.3662109-1.3662109c-0.2768555-0.4785156-0.8896484-0.6430664-1.3662109-0.3662109  l-2.2368164,1.2915039C64.9033203,46.9296875,64.7397461,47.5415039,65.015625,48.0195312z"></path><path d="M60.9921875,37.7358398c-0.4799805-0.2768555-1.0908203-0.1118164-1.3662109,0.3662109l-1.2910156,2.2368164  c-0.2758789,0.4785156-0.1118164,1.0898438,0.3662109,1.3662109c0.1577148,0.0908203,0.3295898,0.1337891,0.4990234,0.1337891  c0.3457031,0,0.6821289-0.1791992,0.8671875-0.5l1.2910156-2.2368164  C61.6342773,38.6235352,61.4702148,38.012207,60.9921875,37.7358398z"></path></svg>