<svg height='100px' width='100px'  fill="#ffffff" xmlns="http://www.w3.org/2000/svg" xmlns:xlink="http://www.w3.org/1999/xlink" xml:space="preserve" version="1.1" style="shape-rendering:geometricPrecision;text-rendering:geometricPrecision;image-rendering:optimizeQuality;" viewBox="0 0 120 196" x="0px" y="0px" fill-rule="evenodd" clip-rule="evenodd"><defs><style type="text/css">
   
    .fil0 {fill:#ffffff}
   
  </style></defs><g><path class="fil0" d="M52 27c25,-10 31,-8 44,11 9,13 13,30 11,47 -3,-5 -7,-11 -11,-16 1,-4 2,-8 3,-11 -4,5 -3,4 -4,10 -1,-1 -1,-1 -1,-1 0,-3 0,-6 2,-9 -3,2 -2,2 -3,6 -1,0 -1,0 -1,1 -3,-3 -5,-6 -7,-9 0,-1 0,-1 0,-2 0,0 -1,1 -1,1 0,0 2,-12 0,-12 -1,2 -1,7 -2,10 -6,-10 -11,-25 -28,-18 16,-3 21,13 24,24 3,13 6,24 6,24 -4,-4 -7,-7 -10,-10 0,-4 2,-9 0,-12 -1,2 -2,8 -2,10 -2,-3 -7,-6 -7,-7 0,-1 0,-3 0,-5 0,0 -1,0 -1,0 0,-3 2,-7 0,-8 0,2 -1,5 -1,6 0,0 -1,0 -1,0 0,1 0,4 0,5 0,0 -2,-1 -2,-2 0,0 2,-10 0,-9 0,0 -1,4 -2,5 -2,-4 -5,-9 -7,-13 -2,-2 -2,-2 -3,-1 17,39 23,65 29,134 3,-4 6,-7 9,-10 -2,3 -4,6 -5,9 3,-3 7,-5 10,-8 -2,2 -4,4 -6,7 2,0 4,-1 6,-1 -5,3 -7,3 -2,4 2,-2 5,-4 8,-6 -1,1 -1,4 -2,5 2,-1 4,0 7,-1 -10,10 13,9 18,16 -6,-2 -30,4 -54,5 -20,1 -41,-4 -47,-4 0,-1 20,-10 19,-10 -1,-2 -3,-3 -5,-5 5,0 9,1 15,4 -2,-2 -4,-4 -5,-6 1,0 2,1 3,1 0,-1 -1,-3 -2,-5 2,2 4,3 6,5 0,-3 -1,-6 -2,-9 2,3 4,6 6,8 12,-50 6,-87 -10,-131 -6,-7 -4,15 -5,22 -1,-1 -4,-5 -5,-6 -2,2 4,9 4,10 -1,1 -1,3 -2,5 0,-2 -3,-4 -3,-6 -2,2 2,7 3,8 0,0 0,0 -1,1 0,0 -1,0 -2,-1 1,1 1,2 2,3 -2,7 -3,9 -1,14 -4,-2 -10,-6 -9,-16 0,-12 4,-34 14,-43 -1,0 -6,2 -6,2 0,-3 0,-5 1,-7 -3,1 -3,4 -3,7 -1,0 -1,0 -2,0 0,-2 1,-3 1,-5 0,0 -1,0 -1,0 0,-1 0,-2 1,-4 -4,1 -3,10 -3,13 0,0 -1,3 -2,3 -1,-3 -2,-5 -2,-7 -2,0 0,8 2,9 -2,2 -2,2 -4,5 -2,-5 -1,-4 -3,-10 -4,1 1,15 1,16 0,4 -1,9 -1,13 -2,-2 -3,-4 -4,-6 0,-1 -3,-2 0,2 1,3 2,6 3,9 0,4 -1,7 -1,11 -2,-2 -3,-5 -4,-7 -4,-1 1,5 1,6 0,0 -1,0 -2,-1 -1,-1 -3,-3 -4,-4 -2,2 6,9 7,11 0,3 0,7 -1,11 -11,-16 -14,-29 -13,-49 1,-12 26,-44 37,-32 2,3 3,5 3,5 1,-3 2,-9 -2,-11 2,-2 3,-3 4,-4 0,-4 -5,1 -5,2 -2,-3 -4,-3 -7,-4 2,-2 4,-3 6,-5 -2,-1 -4,2 -7,4 -1,-3 -8,-3 -10,-3 12,-12 29,-1 29,17 14,-13 27,-15 42,-11 -1,1 -14,3 -13,4 -2,-3 -3,-4 -5,-2 1,1 2,3 3,4 -3,0 -25,8 -23,10z"></path></g></svg>